<?xml version="1.0" encoding="UTF-8" standalone="no"?>
<!-- Created with Inkscape (http://www.inkscape.org/) -->

<svg
   xmlns:dc="http://purl.org/dc/elements/1.1/"
   xmlns:cc="http://creativecommons.org/ns#"
   xmlns:rdf="http://www.w3.org/1999/02/22-rdf-syntax-ns#"
   xmlns:svg="http://www.w3.org/2000/svg"
   xmlns="http://www.w3.org/2000/svg"
   xmlns:sodipodi="http://sodipodi.sourceforge.net/DTD/sodipodi-0.dtd"
   xmlns:inkscape="http://www.inkscape.org/namespaces/inkscape"
   width="80.578026mm"
   height="20.678055mm"
   viewBox="0 0 80.578026 20.678055"
   version="1.1"
   id="svg8"
   inkscape:version="0.92.1 r15371"
   sodipodi:docname="cola.svg"
   inkscape:export-filename="/home/ianertson/Pictures/cola.svg.png"
   inkscape:export-xdpi="96"
   inkscape:export-ydpi="96">
  <defs
     id="defs2" />
  <sodipodi:namedview
     id="base"
     pagecolor="#ffffff"
     bordercolor="#666666"
     borderopacity="1.0"
     inkscape:pageopacity="0.0"
     inkscape:pageshadow="2"
     inkscape:zoom="1.4"
     inkscape:cx="252.99829"
     inkscape:cy="2.2723565"
     inkscape:document-units="mm"
     inkscape:current-layer="layer1"
     showgrid="false"
     inkscape:window-width="1390"
     inkscape:window-height="815"
     inkscape:window-x="24"
     inkscape:window-y="1719"
     inkscape:window-maximized="0"
     fit-margin-top="0"
     fit-margin-left="0"
     fit-margin-right="0"
     fit-margin-bottom="0" />
  <metadata
     id="metadata5">
    <rdf:RDF>
      <cc:Work
         rdf:about="">
        <dc:format>image/svg+xml</dc:format>
        <dc:type
           rdf:resource="http://purl.org/dc/dcmitype/StillImage" />
        <dc:title></dc:title>
      </cc:Work>
    </rdf:RDF>
  </metadata>
  <g
     inkscape:label="Layer 1"
     inkscape:groupmode="layer"
     id="layer1"
     transform="translate(-3.5052124,-7.5008341)">
    <text
       xml:space="preserve"
       style="font-style:normal;font-variant:normal;font-weight:normal;font-stretch:normal;font-size:10.58333302px;line-height:1.25;font-family:'URW Bookman L';-inkscape-font-specification:'URW Bookman L';letter-spacing:0px;word-spacing:0px;fill:#000000;fill-opacity:1;stroke:none;stroke-width:0.26458332"
       x="2.2678573"
       y="21.833332"
       id="text20"><tspan
         sodipodi:role="line"
         id="tspan18"
         x="2.2678573"
         y="31.381865"
         style="font-style:normal;font-variant:normal;font-weight:normal;font-stretch:normal;font-size:25.39999962px;font-family:'URW Bookman L';-inkscape-font-specification:'URW Bookman L';stroke-width:0.26458332" /></text>
    <flowRoot
       xml:space="preserve"
       id="flowRoot26"
       style="font-style:normal;font-variant:normal;font-weight:normal;font-stretch:normal;font-size:40px;line-height:1.25;font-family:qub;-inkscape-font-specification:qub;letter-spacing:0px;word-spacing:0px;fill:#000000;fill-opacity:1;stroke:none"
       transform="scale(0.26458333)"><flowRegion
         id="flowRegion28"
         style="font-style:normal;font-variant:normal;font-weight:normal;font-stretch:normal;font-family:qub;-inkscape-font-specification:qub"><rect
           id="rect30"
           width="322.14285"
           height="117.14286"
           x="9.2857141"
           y="13.23397"
           style="font-style:normal;font-variant:normal;font-weight:normal;font-stretch:normal;font-family:qub;-inkscape-font-specification:qub" /></flowRegion><flowPara
         id="flowPara32" /></flowRoot>    <flowRoot
       xml:space="preserve"
       id="flowRoot34"
       style="font-style:normal;font-variant:normal;font-weight:normal;font-stretch:normal;font-size:40px;line-height:1.25;font-family:'DejaVu Math TeX Gyre';-inkscape-font-specification:'DejaVu Math TeX Gyre';letter-spacing:0px;word-spacing:0px;fill:#000000;fill-opacity:1;stroke:none"
       transform="scale(0.26458333)"><flowRegion
         id="flowRegion36"
         style="font-style:normal;font-variant:normal;font-weight:normal;font-stretch:normal;font-family:'DejaVu Math TeX Gyre';-inkscape-font-specification:'DejaVu Math TeX Gyre'"><rect
           id="rect38"
           width="344.28571"
           height="112.14285"
           x="7.8571429"
           y="14.662541"
           style="font-style:normal;font-variant:normal;font-weight:normal;font-stretch:normal;font-family:'DejaVu Math TeX Gyre';-inkscape-font-specification:'DejaVu Math TeX Gyre'" /></flowRegion><flowPara
         id="flowPara40"
         style="font-style:normal;font-variant:normal;font-weight:normal;font-stretch:normal;font-size:96px;font-family:sans-serif;-inkscape-font-specification:sans-serif">C    LA</flowPara></flowRoot>    <text
       xml:space="preserve"
       style="font-style:normal;font-variant:normal;font-weight:normal;font-stretch:normal;font-size:10.58333302px;line-height:1.25;font-family:Termsyn;-inkscape-font-specification:Termsyn;letter-spacing:0px;word-spacing:0px;fill:#000000;fill-opacity:1;stroke:none;stroke-width:0.26458332"
       x="10.961308"
       y="41.110119"
       id="text44"><tspan
         sodipodi:role="line"
         id="tspan42"
         x="10.961308"
         y="50.473888"
         style="stroke-width:0.26458332" /></text>
    <g
       style="overflow:visible"
       id="g295"
       transform="matrix(0.16057523,0,0,0.13308717,20.449048,10.385391)">
      <g
         id="g249">
        <linearGradient
           gradientTransform="matrix(1,0,0,-1,0,119.9131)"
           y2="118.5449"
           x2="99.612099"
           y1="-0.029300001"
           x1="99.612099"
           gradientUnits="userSpaceOnUse"
           id="XMLID_7_">
          <stop
             id="stop179"
             style="stop-color:#FFFFFF"
             offset="0" />
          <stop
             id="stop181"
             style="stop-color:#EBEBEB"
             offset="0.0867" />
          <stop
             id="stop183"
             style="stop-color:#C6C6C6"
             offset="0.2749" />
          <stop
             id="stop185"
             style="stop-color:#A8A8A8"
             offset="0.4628" />
          <stop
             id="stop187"
             style="stop-color:#939393"
             offset="0.6478" />
          <stop
             id="stop189"
             style="stop-color:#868686"
             offset="0.8284" />
          <stop
             id="stop191"
             style="stop-color:#828282"
             offset="1" />
        </linearGradient>
        <path
           id="path194"
           d="M 187.996,50.058 C 182.482,27.994 174.261,16.377 152.475,9.461 119.734,-0.935 33.342,-9.358 18.61,37.896 L 5.378,57.801 1.383,63.899 c 0,0 -1.261,3.994 0.631,5.257 1.892,1.262 4.205,3.573 4.205,3.573 0,0 -2.733,3.573 -2.733,4.416 0,0.84 -0.421,5.045 1.893,6.729 2.312,1.682 7.779,5.256 7.779,5.256 l 0.373,-0.537 c 1.1,9.809 12.051,14.322 20.833,14.623 6.352,12.371 19.104,8 27.946,10.58 4.719,1.379 8.59,4.74 12.99,5.488 5.463,0.932 13.025,0.336 17.627,-1.177 12.358,3.841 25.995,1.149 38.093,-3.448 9.064,4.338 22.187,-1.015 26.737,-9.488 l 5.175,-1.494 c 8.345,0.969 23.523,-2.08 22.079,-13.109 3.781,-6.141 15.82,-8.268 6.342,-15.541 0.599,-4.6 7.101,-6.338 6.895,-9.668 -0.232,-3.74 -6.984,-4.068 -6.774,-9.532 z"
           inkscape:connector-curvature="0"
           style="fill:url(#XMLID_7_);stroke:#000000;stroke-width:1.94400001;stroke-linecap:round" />
        <linearGradient
           gradientTransform="matrix(1,0,0,-1,0,119.9131)"
           y2="24.491301"
           x2="119.8661"
           y1="123.4077"
           x1="83.863503"
           gradientUnits="userSpaceOnUse"
           id="XMLID_8_">
          <stop
             id="stop196"
             style="stop-color:#828282"
             offset="0.0562" />
          <stop
             id="stop198"
             style="stop-color:#868686"
             offset="0.2114" />
          <stop
             id="stop200"
             style="stop-color:#919191"
             offset="0.3594" />
          <stop
             id="stop202"
             style="stop-color:#A5A5A5"
             offset="0.5046" />
          <stop
             id="stop204"
             style="stop-color:#C0C0C0"
             offset="0.648" />
          <stop
             id="stop206"
             style="stop-color:#E2E2E2"
             offset="0.7887" />
          <stop
             id="stop208"
             style="stop-color:#FFFFFF"
             offset="0.8876" />
          <stop
             id="stop210"
             style="stop-color:#F7F7F7"
             offset="0.9444" />
          <stop
             id="stop212"
             style="stop-color:#EDEDED"
             offset="0.9888" />
        </linearGradient>
        <path
           id="path215"
           d="M 186.29,49.034 C 186.29,24.241 163.608,4.439 101.705,2.098 44.358,-0.07 18.156,22.197 18.156,46.99 c 0,24.794 37.406,44.892 83.55,44.892 46.142,0 84.584,-18.054 84.584,-42.848 z"
           inkscape:connector-curvature="0"
           style="fill:url(#XMLID_8_)" />
        <path
           id="path217"
           d="m 187.638,46.533 c 6.053,2.041 12.811,6.756 4.997,10.486 l -1.162,-1.194 -1.229,1.333 c -0.956,-1.151 -2.086,-2.129 -2.301,-4.024 l 0.053,-3.076 z"
           inkscape:connector-curvature="0" />
        <path
           id="path219"
           d="m 162.933,103.675 0.287,1.781 c -2.06,0.049 -3.322,0.896 -5.175,1.15 l -0.287,-1.438 -1.438,0.287 c -0.992,-5.164 -4.359,-13.043 -5.75,-17.824 -0.208,-0.715 1.177,-3.07 -1.149,-2.299 0.949,0.254 0.949,4.344 0,4.6 0.036,-1.24 -0.674,-4.619 -1.726,-2.875 -1.335,0.236 -0.161,9.521 -2.875,4.6 -0.332,1.537 1.701,3.592 0,4.6 -1.238,-0.483 -0.484,-2.965 -1.725,-3.448 -0.698,2.312 1.522,4.207 -0.575,4.601 0.16,-1.312 -0.139,-2.162 -1.149,-2.302 -1.436,0.545 1.547,2.963 -1.149,2.875 1.523,-4.276 -3.16,0.731 -3.45,-3.448 0.498,2.143 -0.307,6.692 -0.575,6.899 -0.387,0.295 -1.691,-0.716 -1.725,-0.576 -1.449,6.231 4.571,11.795 -1.726,13.802 h -1.726 -1.725 c -3.58,-5.541 -0.552,-18.035 -3.45,-23 1.649,2.825 -3.82,1.764 -1.725,-1.15 0.49,-0.684 3.785,-0.777 5.75,-1.15 6.479,-1.23 15.353,-4.875 18.975,-5.75 10.099,-2.438 27.262,-15.191 33.349,-24.148 l 2.219,0.904 1.231,-2.055 c 3.385,-0.189 3.063,2.893 1.15,2.301 0.909,1.197 1.874,2.342 2.3,4.023 -1.173,-0.168 -1.128,-1.555 -2.3,-1.725 -0.045,2.584 3.914,3.424 2.3,5.75 l -2.013,-0.287 -2.014,0.287 c -2.079,-3.14 -1.312,0.629 -4.023,1.149 0.077,3.269 2.332,-2.554 2.875,-0.574 -2.105,1.13 0.146,2.873 -0.575,3.449 -0.589,0.065 -1.163,-2.479 -1.726,-0.574 1.26,0.498 2.748,3.724 1.726,4.601 -0.354,-1.562 -1.141,-2.693 -2.3,-3.451 0.267,2.801 2.519,3.615 2.875,6.326 -1.618,0.106 -2.45,1 -2.301,2.875 l -1.223,1.904 -1.651,1.545 c -3.258,-2.689 -3.545,-11.398 -6.325,-12.65 0.731,0.131 0.754,1.717 0,1.727 -0.577,-0.766 -0.544,-2.141 -1.726,-2.301 0.555,2.848 0.432,5.969 0,8.049 0.024,-0.982 -0.428,-1.488 -1.149,-1.725 0.096,1.629 1.054,2.396 1.149,4.025 -1.479,-0.056 -0.821,-2.244 -2.301,-2.302 -0.344,1.024 1.687,2.39 0,2.875 -0.337,-0.512 -1.208,-3.278 -1.725,-1.726 l -0.862,-0.286 0.287,0.862 c -2.146,0.74 1.629,3.228 0,3.449 -0.798,-0.928 -1.187,-2.264 -2.3,-2.875 0.459,3.467 1.638,3.99 -0.575,3.449 0.999,1.893 2.744,6.053 2.3,7.477 -1.346,-3.035 -1.508,-3.813 -4.023,-3.451 0.553,1.58 1.538,5.714 2.875,4.601 -0.795,-0.407 -2.012,-3.28 -1.15,-3.448 1.366,2.096 3.935,6.016 3.45,8.049 -0.549,-0.525 -2.61,-3.967 -1.726,-2.299 0.405,2.102 2.277,4.528 -0.574,5.174 z"
           inkscape:connector-curvature="0" />
        <path
           id="path221"
           d="m 7.521,53.832 -1.848,0.452 c -6.155,-9.949 8.796,-11.257 11.5,-17.825 l 3.45,1.15 c -1.224,29.014 18.282,42.9 47.148,49.45 l -0.288,2.588 2.587,0.287 c -0.923,2.635 -0.312,14.646 -3.449,18.976 -0.183,0.25 -1.572,-0.265 -1.726,0 -0.941,1.621 0.129,2.916 -1.149,3.448 -2.605,1.086 -11.234,-0.808 -5.75,-3.448 0.55,1.069 -1.723,1.922 0,2.299 -0.58,-2.017 2.345,-1.051 2.875,-2.299 -0.268,0.629 -1.704,-0.392 -1.726,-0.576 0.004,0.033 2.035,-4.229 1.15,-5.75 -0.917,0.426 0.131,2.813 -1.726,2.301 -0.538,-2.672 2.238,-5.012 0.575,-6.9 -0.063,1.469 -1.054,2.014 -1.725,2.875 0.279,-2.686 0.968,-4.027 -0.575,-5.75 1.799,0.193 2.618,-2.824 0.575,-4.023 -1.933,0.599 0.455,2.234 -1.726,2.875 1.927,-3.791 -5.078,-2.637 -5.75,-5.176 -0.088,-0.334 0.946,-1.057 0.575,-1.725 -0.206,-0.371 -1.791,0.242 -2.3,-1.15 -0.606,-1.662 1.481,-2.07 -1.15,-2.301 0.184,-2.271 1.78,0.426 2.301,-1.148 -5.28,-2.071 -4.631,13.888 -9.2,16.101 -0.059,-1.631 2.279,-3.804 1.149,-4.601 -1.643,1.99 -2.443,9.685 -5.175,6.898 l -1.436,-1.439 -0.288,2.015 c -7.16,0.086 0.938,-6.632 -1.15,-9.774 -0.495,0.463 -0.342,1.573 -1.149,1.725 1.729,-4.109 -0.868,-5.225 2.3,-9.775 -2.459,3.504 -2.885,2.023 -5.175,5.176 0.622,-0.818 0.351,-2.129 0,-3.449 0.263,0.986 -1.129,1.234 -1.15,1.148 -0.512,-2.076 3.074,-9.053 -0.575,-6.324 1.754,-3.732 0.28,-5.414 -1.149,-8.625 -1.385,4.557 -3.28,8.604 -6.325,11.5 l -2.3,-0.863 -2.301,0.863 c -1.297,0.619 -1.675,2.158 -2.875,2.875 0.154,-3.117 4.449,-5.117 3.45,-7.475 -0.433,1.139 -2.189,3.893 -2.875,2.875 1,-1.512 3.786,-4.238 2.875,-5.75 -0.377,0.828 -1.646,3.646 -2.3,2.301 0.412,-1.912 3.486,-4.152 2.3,-5.75 0.211,0.977 -0.449,1.084 -1.149,1.148 0.315,-1.441 2.686,-3.787 1.725,-4.6 -0.858,0.676 -0.677,2.391 -2.3,2.301 -0.288,-2.234 3.306,-3.558 1.725,-5.176 0.211,0.979 -0.449,1.086 -1.149,1.149 -0.27,-1.474 2.032,-3.261 0.574,-4.024 l -2.122,-1.281 -2.478,0.131 c 0.658,-1.809 -0.903,-1.396 -1.15,-2.299 1.343,1.146 3.464,-0.85 2.301,-1.725 -0.203,0.658 -1.013,1.457 -1.15,0.574 -0.602,-2.287 1.714,-4.731 1.15,-6.325 -0.907,1.393 -2.058,2.542 -3.45,3.45 z"
           inkscape:connector-curvature="0" />
        <path
           id="path223"
           d="m 76.013,91.275 -0.191,-2.492 c 14.486,3.445 32.69,1.811 47.725,2.875 -0.836,0.889 -2.243,1.207 -4.025,1.15 -0.445,2.744 3.595,-1.291 4.025,0.574 -0.361,1.172 -2.905,0.162 -2.3,2.301 1.069,0.549 1.922,-1.723 2.3,0 -1.074,0.459 -2.106,0.961 -3.45,1.15 0.072,-1.439 1.098,-1.801 -0.575,-2.301 0.823,1.002 -3.338,4.627 -2.874,4.6 -0.664,0.037 -0.426,-2.059 -1.149,-1.725 -0.681,0.313 -1.903,4.418 -4.601,2.875 -0.176,2.348 1.199,0.307 2.299,0.573 -1.104,1.437 0.879,2.362 -0.573,3.451 -2.188,-3.502 -2.914,-2.324 -5.176,-5.75 0.378,2.887 -0.724,4.642 0,6.323 -1.171,-0.491 -3.572,0.5 -1.726,1.15 0.143,-0.725 1.145,-0.58 1.15,0 -0.094,0.674 -1.05,0.484 -1.726,0.574 -0.846,2.188 2.57,0.113 1.726,2.301 -1.439,-0.072 -1.801,-1.098 -2.301,0.574 0.767,1.41 1.735,-1.035 2.301,0.574 -2.401,-0.1 -1.138,3.465 -2.301,4.602 -1.106,-0.68 0.458,-2.846 -1.149,-4.025 -0.646,3.779 0.634,5.099 1.726,5.75 -0.882,-0.584 -4.6,3.017 -6.325,1.15 -1.225,-1.324 -0.674,-25.324 0,-25.301 -3.268,0.824 -1.139,7.154 -2.3,9.201 0.396,-0.699 -0.594,-1.037 -0.575,-1.15 -1.012,6.217 0.608,10.064 -1.725,16.1 -0.048,-0.91 0.277,-2.192 -0.575,-2.301 l -2.117,-1.307 0.393,2.457 c -0.628,4.227 -9.463,0.662 -4.025,-1.725 0.073,1.031 -0.704,1.213 -0.575,2.299 3.631,-0.881 -0.424,-3.381 -0.574,-4.023 -0.451,-1.92 2.462,-6.08 0,-6.9 -0.166,1.75 0.091,3.925 -1.726,4.025 1.583,-1.529 -0.422,-2.016 -0.574,-3.451 2.618,0.746 0.769,-0.291 0,-1.725 1.153,0.195 1.799,-0.117 1.725,-1.15 -2.35,-1.404 -1.583,-2.699 -1.725,-5.748 -0.384,0 -0.768,0 -1.15,0 -0.668,-0.094 -1.023,0.127 -1.15,0.574 3.131,1.215 -5.505,5.938 -3.449,0.574 -2.427,-0.893 0.125,3.193 -2.301,2.301 -0.492,-3.703 1.185,-2.57 2.301,-4.025 -1.061,-1.391 -2.933,1.246 -4.025,1.726 1.758,-3.489 -2,-0.886 -1.725,-4.022 1.07,-0.551 1.922,1.721 2.3,0 -3.048,-1.812 -2.763,-0.299 -4.025,1.147 -1.517,-2.679 1.527,-2.914 2.3,-4.022 z"
           inkscape:connector-curvature="0" />
        <path
           id="path225"
           d="M 6.823,72.109 C -4.61,68.548 3.938,60.053 7.521,53.832"
           inkscape:connector-curvature="0"
           style="fill:none;stroke:#000000;stroke-width:1.63;stroke-linecap:round" />
        <path
           id="path227"
           d="m 67.484,89.46 c 2.783,-1.6 6.391,-0.377 8.529,1.629"
           inkscape:connector-curvature="0"
           style="fill:none;stroke:#000000;stroke-width:2.70079994;stroke-linecap:round" />
        <path
           id="path229"
           d="m 6.823,72.109 c 1.19,-4.043 4.743,-6.795 6.501,-10.482"
           inkscape:connector-curvature="0"
           style="fill:none;stroke:#000000;stroke-width:5.12680006;stroke-linecap:round" />
        <path
           id="path231"
           d="m 187.996,50.058 c -2.226,2.784 -4.068,6.734 -3.584,10.305"
           inkscape:connector-curvature="0"
           style="fill:none;stroke:#000000;stroke-width:3.19169998;stroke-linecap:round" />
        <path
           id="path233"
           d="M 6.823,72.109 C -0.278,79.213 5.01,86.246 13.53,88.591"
           inkscape:connector-curvature="0"
           style="fill:none;stroke:#000000;stroke-width:1.86899996;stroke-linecap:round" />
        <path
           id="path235"
           d="m 13.531,88.591 c 2,-1.563 3.094,-4.143 4.217,-6.422"
           inkscape:connector-curvature="0"
           style="fill:none;stroke:#000000;stroke-width:3.03419995;stroke-linecap:round" />
        <path
           id="path237"
           d="m 191.354,74.025 c -2.193,-1.504 -3.116,-4.295 -4.271,-6.654"
           inkscape:connector-curvature="0"
           style="fill:none;stroke:#000000;stroke-width:3.04570007;stroke-linecap:round" />
        <path
           id="path239"
           d="m 34.365,103.214 c 0.986,-1.002 0.558,-2.569 0.345,-3.795"
           inkscape:connector-curvature="0"
           style="fill:none;stroke:#000000;stroke-width:1.40840006;stroke-linecap:round" />
        <path
           id="path241"
           d="m 185.012,90.566 c -3.186,-0.67 -2.55,-4.496 -4.614,-6.203"
           inkscape:connector-curvature="0"
           style="fill:none;stroke:#000000;stroke-width:4.13570023;stroke-linecap:round" />
        <path
           id="path243"
           d="m 165.808,81.596 c 1.805,2.166 2.296,4.94 3.45,7.475"
           inkscape:connector-curvature="0"
           style="fill:none;stroke:#000000;stroke-width:0.73629999;stroke-linecap:round" />
        <path
           id="path245"
           d="m 92.928,118.107 c -0.128,-1.992 0.348,-3.861 -1.398,-5.332"
           inkscape:connector-curvature="0"
           style="fill:none;stroke:#000000;stroke-width:1.14999998;stroke-linecap:round" />
        <path
           id="path247"
           d="M 188.377,49.662 C 182.862,27.598 174.641,15.981 152.856,9.065 120.115,-1.331 33.722,-9.754 18.991,37.5 L 5.759,57.404 1.764,63.502 c 0,0 -1.261,3.994 0.631,5.256 1.892,1.262 4.205,3.574 4.205,3.574 0,0 -2.732,3.574 -2.732,4.416 0,0.84 -0.422,5.045 1.892,6.729 2.312,1.683 7.779,5.256 7.779,5.256 l 0.374,-0.537 c 1.099,9.81 12.05,14.322 20.833,14.623 6.351,12.371 19.104,8 27.945,10.58 4.72,1.379 8.59,4.74 12.99,5.488 5.463,0.932 13.025,0.336 17.627,-1.177 12.358,3.84 25.995,1.15 38.092,-3.448 9.064,4.338 22.187,-1.015 26.738,-9.488 l 5.174,-1.493 c 8.347,0.969 23.523,-2.08 22.08,-13.109 3.781,-6.141 15.82,-8.269 6.342,-15.541 0.599,-4.6 7.101,-6.338 6.894,-9.668 -0.232,-3.74 -6.984,-4.068 -6.773,-9.532 z"
           inkscape:connector-curvature="0"
           style="fill:none;stroke:#000000;stroke-width:1.94400001;stroke-linecap:round" />
      </g>
    </g>
  </g>
</svg>
